<svg width="51" height="52" viewBox="0 0 51 52" fill="none" xmlns="http://www.w3.org/2000/svg">
<g clip-path="url(#clip0)" filter="url(#filter0_d)">
<path d="M36.3785 21.424C36.3273 20.263 36.1396 19.4648 35.8706 18.7732C35.5932 18.0391 35.1663 17.3818 34.6071 16.8354C34.0607 16.2805 33.3991 15.8493 32.6735 15.5762C31.9779 15.3073 31.1839 15.1195 30.0229 15.0684C28.8533 15.0128 28.4819 15 25.5154 15C22.5488 15 22.1775 15.0128 21.0122 15.064C19.8512 15.1152 19.0531 15.3031 18.3616 15.5719C17.6273 15.8493 16.9701 16.2762 16.4237 16.8354C15.8688 17.3818 15.4378 18.0434 15.1645 18.769C14.8955 19.4648 14.7078 20.2587 14.6566 21.4196C14.6011 22.5893 14.5883 22.9606 14.5883 25.9271C14.5883 28.8937 14.6011 29.265 14.6523 30.4303C14.7035 31.5913 14.8914 32.3894 15.1603 33.0811C15.4378 33.8152 15.8688 34.4725 16.4237 35.0189C16.9701 35.5737 17.6317 36.0049 18.3573 36.278C19.0531 36.547 19.8469 36.7347 21.008 36.7859C22.1732 36.8373 22.5447 36.8499 25.5112 36.8499C28.4778 36.8499 28.8491 36.8373 30.0144 36.7859C31.1754 36.7347 31.9735 36.547 32.665 36.278C34.1334 35.7103 35.2944 34.5493 35.8621 33.0811C36.1309 32.3853 36.3188 31.5913 36.37 30.4303C36.4212 29.265 36.434 28.8937 36.434 25.9271C36.434 22.9606 36.4297 22.5893 36.3785 21.424ZM34.4109 30.3449C34.3638 31.412 34.1846 31.9883 34.0352 32.3724C33.6681 33.3243 32.9126 34.0798 31.9607 34.447C31.5765 34.5963 30.9961 34.7756 29.9332 34.8224C28.7807 34.8738 28.4351 34.8865 25.5197 34.8865C22.6044 34.8865 22.2544 34.8738 21.1061 34.8224C20.039 34.7756 19.4627 34.5963 19.0786 34.447C18.6049 34.2719 18.1737 33.9944 17.8237 33.6316C17.4609 33.2773 17.1835 32.8505 17.0084 32.3768C16.859 31.9926 16.6798 31.412 16.6329 30.3493C16.5816 29.1968 16.5689 28.851 16.5689 25.9356C16.5689 23.0203 16.5816 22.6703 16.6329 21.5222C16.6798 20.4551 16.859 19.8788 17.0084 19.4947C17.1835 19.0208 17.4609 18.5898 17.8281 18.2397C18.1822 17.8768 18.6091 17.5994 19.0829 17.4245C19.4671 17.2751 20.0477 17.0959 21.1104 17.0488C22.2629 16.9977 22.6087 16.9848 25.5239 16.9848C28.4436 16.9848 28.7892 16.9977 29.9375 17.0488C31.0046 17.0959 31.5809 17.2751 31.965 17.4245C32.4387 17.5994 32.8699 17.8768 33.2199 18.2397C33.5827 18.594 33.8601 19.0208 34.0352 19.4947C34.1846 19.8788 34.3638 20.4592 34.4109 21.5222C34.462 22.6746 34.4749 23.0203 34.4749 25.9356C34.4749 28.851 34.462 29.1925 34.4109 30.3449Z" fill="white"/>
<path d="M25.5155 20.3145C22.4168 20.3145 19.9026 22.8285 19.9026 25.9274C19.9026 29.0263 22.4168 31.5404 25.5155 31.5404C28.6145 31.5404 31.1285 29.0263 31.1285 25.9274C31.1285 22.8285 28.6145 20.3145 25.5155 20.3145ZM25.5155 29.5684C23.5052 29.5684 21.8745 27.9379 21.8745 25.9274C21.8745 23.9169 23.5052 22.2864 25.5155 22.2864C27.526 22.2864 29.1565 23.9169 29.1565 25.9274C29.1565 27.9379 27.526 29.5684 25.5155 29.5684Z" fill="white"/>
<path d="M32.6609 20.0926C32.6609 20.8162 32.0742 21.403 31.3504 21.403C30.6268 21.403 30.04 20.8162 30.04 20.0926C30.04 19.3688 30.6268 18.7822 31.3504 18.7822C32.0742 18.7822 32.6609 19.3688 32.6609 20.0926Z" fill="white"/>
</g>
<defs>
<filter id="filter0_d" x="0.299927" y="0.75" width="50.35" height="50.35" filterUnits="userSpaceOnUse" color-interpolation-filters="sRGB">
<feFlood flood-opacity="0" result="BackgroundImageFix"/>
<feColorMatrix in="SourceAlpha" type="matrix" values="0 0 0 0 0 0 0 0 0 0 0 0 0 0 0 0 0 0 127 0"/>
<feOffset/>
<feGaussianBlur stdDeviation="7.125"/>
<feColorMatrix type="matrix" values="0 0 0 0 1 0 0 0 0 1 0 0 0 0 1 0 0 0 0.2 0"/>
<feBlend mode="normal" in2="BackgroundImageFix" result="effect1_dropShadow"/>
<feBlend mode="normal" in="SourceGraphic" in2="effect1_dropShadow" result="shape"/>
</filter>
<clipPath id="clip0">
<rect width="21.85" height="21.85" fill="white" transform="translate(14.5499 15)"/>
</clipPath>
</defs>
</svg>
