<svg width="15" height="15" viewBox="0 0 15 15" fill="none" xmlns="http://www.w3.org/2000/svg">
<g clip-path="url(#clip0)">
<path d="M7.50131 0C4.68734 0 2.40576 2.26625 2.40576 5.0619C2.40576 6.49209 3.8087 9.05435 3.8087 9.05435L7.31348 15L10.9703 9.12377C10.9703 9.12377 12.5947 6.67907 12.5947 5.0619C12.5951 2.26625 10.314 0 7.50131 0ZM7.47745 7.84988C5.86582 7.84988 4.56042 6.54448 4.56042 4.93114C4.56042 3.31994 5.8654 2.01539 7.47745 2.01539C9.08823 2.01539 10.3949 3.31994 10.3949 4.93114C10.3949 6.54448 9.08823 7.84988 7.47745 7.84988Z" fill="white"/>
</g>
<defs>
<clipPath id="clip0">
<rect width="15" height="15" fill="white"/>
</clipPath>
</defs>
</svg>
