<svg width="15" height="15" viewBox="0 0 15 15" fill="none" xmlns="http://www.w3.org/2000/svg">
<g clip-path="url(#clip0)">
<path d="M0.312968 2.78826C2.37166 4.53175 5.98402 7.59907 7.04574 8.55547C7.18827 8.68455 7.34114 8.75017 7.49984 8.75017C7.65822 8.75017 7.81083 8.68517 7.95304 8.5567C9.01567 7.59936 12.628 4.53175 14.6868 2.78826C14.8149 2.67992 14.8345 2.48949 14.7307 2.35704C14.4908 2.05098 14.1332 1.87549 13.7498 1.87549H1.24985C0.866562 1.87549 0.508877 2.05098 0.269023 2.35707C0.165254 2.48949 0.184795 2.67992 0.312968 2.78826Z" fill="white"/>
<path d="M14.8185 3.73275C14.7077 3.68118 14.5774 3.69917 14.4852 3.77792C12.2022 5.71333 9.28839 8.19413 8.37163 9.02022C7.85709 9.48469 7.14298 9.48469 6.62724 9.0196C5.65007 8.13917 2.37796 5.35749 0.514268 3.77789C0.421484 3.69914 0.290879 3.68177 0.181016 3.73272C0.0705664 3.78402 -0.000244141 3.8945 -0.000244141 4.01625V11.8751C-0.000244141 12.5646 0.560352 13.1251 1.24977 13.1251H13.7498C14.4392 13.1251 14.9998 12.5646 14.9998 11.8751V4.01625C14.9998 3.8945 14.9289 3.78372 14.8185 3.73275Z" fill="white"/>
</g>
<defs>
<clipPath id="clip0">
<rect width="15" height="15" fill="white"/>
</clipPath>
</defs>
</svg>
