<svg width="15" height="15" viewBox="0 0 15 15" fill="none" xmlns="http://www.w3.org/2000/svg">
<g clip-path="url(#clip0)">
<path d="M6.21119 8.78897C4.77947 7.35725 4.45619 5.92552 4.38326 5.3519C4.36288 5.19329 4.41747 5.03423 4.53094 4.92156L5.68956 3.76345C5.85999 3.59312 5.89024 3.32767 5.76249 3.12337L3.91775 0.258883C3.77641 0.0326542 3.48622 -0.048994 3.24766 0.0703485L0.286195 1.46509C0.0932788 1.56008 -0.0201917 1.76505 0.0017118 1.97897C0.156884 3.45311 0.799556 7.0769 4.36076 10.6384C7.92197 14.1998 11.5452 14.8422 13.0202 14.9974C13.2341 15.0193 13.439 14.9059 13.534 14.7129L14.9288 11.7515C15.0477 11.5134 14.9666 11.224 14.7413 11.0824L11.8768 9.23819C11.6726 9.11031 11.4072 9.14034 11.2367 9.31061L10.0786 10.4692C9.96593 10.5827 9.80687 10.6373 9.64826 10.6169C9.07464 10.544 7.64292 10.2207 6.21119 8.78897Z" fill="white"/>
<path d="M11.8967 8.01795C11.611 8.01795 11.3795 7.78637 11.3795 7.50071C11.377 5.35923 9.64163 3.62382 7.50015 3.6214C7.21449 3.6214 6.98291 3.38982 6.98291 3.10416C6.98291 2.81849 7.21449 2.58691 7.50015 2.58691C10.2127 2.58991 12.411 4.78814 12.4139 7.50071C12.4139 7.78637 12.1824 8.01795 11.8967 8.01795Z" fill="white"/>
<path d="M14.4829 8.01773C14.1972 8.01773 13.9657 7.78615 13.9657 7.50049C13.9617 3.93134 11.0693 1.03896 7.50015 1.03497C7.21449 1.03497 6.98291 0.803394 6.98291 0.51773C6.98291 0.232065 7.21449 0.000488281 7.50015 0.000488281C11.6404 0.00504928 14.9956 3.36024 15.0002 7.50049C15.0002 7.63767 14.9457 7.76923 14.8487 7.86623C14.7517 7.96324 14.6201 8.01773 14.4829 8.01773Z" fill="white"/>
<g clip-path="url(#clip1)">
<path d="M117.387 -17.4238C116.18 -17.9855 114.761 -17.7896 113.757 -16.9317C88.8862 4.15191 57.1443 31.1768 47.1575 40.1758C41.5523 45.2356 33.773 45.2356 28.1547 40.1691C17.5099 30.5781 -18.1353 0.275528 -38.4376 -16.932C-39.4483 -17.7899 -40.8711 -17.9792 -42.0679 -17.4242C-43.2711 -16.8653 -44.0425 -15.6618 -44.0425 -14.3354V71.2763C-44.0425 78.7865 -37.9356 84.8934 -30.4254 84.8934H105.745C113.255 84.8934 119.362 78.7865 119.362 71.2763V-14.3354C119.362 -15.6618 118.59 -16.8685 117.387 -17.4238Z" fill="black"/>
</g>
</g>
<defs>
<clipPath id="clip0">
<rect width="15" height="15" fill="white"/>
</clipPath>
<clipPath id="clip1">
<rect width="163.404" height="163.404" fill="white" transform="translate(-44.0425 -58.0854)"/>
</clipPath>
</defs>
</svg>
