<svg width="26" height="26" viewBox="0 0 26 26" fill="none" xmlns="http://www.w3.org/2000/svg">
<g clip-path="url(#clip0)">
<path d="M25.5572 6.55184C22.2042 3.0257 17.7444 1.08331 13 1.08331C8.25562 1.08331 3.79585 3.0257 0.442818 6.55184C-0.147565 7.17285 -0.147565 8.18269 0.442818 8.80369L2.94095 11.4306C3.52925 12.0473 4.56829 12.0473 5.15654 11.4306C5.99346 10.5509 6.94256 9.82673 7.97525 9.28083C8.49266 9.01372 8.82701 8.45244 8.82279 7.92243L9.19949 5.07553C11.9632 4.19214 14.0655 4.1927 16.8017 5.07502L17.1742 7.85108C17.1742 8.45147 17.4927 8.9995 18.0132 9.28565C19.0501 9.83419 20.0003 10.5584 20.8372 11.4375C21.1303 11.747 21.5239 11.9168 21.945 11.9168C22.3662 11.9168 22.7598 11.747 23.0528 11.4381L25.5573 8.80379C26.1476 8.18263 26.1476 7.17285 25.5572 6.55184Z" fill="black" fill-opacity="0.61"/>
<path d="M20.048 11.1835C19.5762 10.2991 18.66 9.75 17.6581 9.75H8.34189C7.34002 9.75 6.42383 10.2991 5.95197 11.1835L2.48514 17.6841C2.27673 18.0755 2.16669 18.5161 2.16669 18.9584V22.75C2.16669 23.9449 3.13894 24.9167 4.33337 24.9167H21.6667C22.8611 24.9167 23.8334 23.945 23.8334 22.75V18.9583C23.8334 18.5161 23.7233 18.0755 23.5149 17.6835L20.048 11.1835ZM9.74893 21.6667C9.15119 21.6667 8.66562 21.1806 8.66562 20.5834C8.66562 19.9862 9.15124 19.5001 9.74893 19.5001C10.3467 19.5001 10.8322 19.9862 10.8322 20.5834C10.8323 21.1806 10.3467 21.6667 9.74893 21.6667ZM9.74893 18.4167C9.15119 18.4167 8.66562 17.9306 8.66562 17.3334C8.66562 16.7362 9.15124 16.2501 9.74893 16.2501C10.3467 16.2501 10.8322 16.7362 10.8322 17.3334C10.8323 17.9306 10.3467 18.4167 9.74893 18.4167ZM9.74893 15.1667C9.15119 15.1667 8.66562 14.6806 8.66562 14.0834C8.66562 13.4862 9.15124 13.0001 9.74893 13.0001C10.3467 13.0001 10.8322 13.4862 10.8322 14.0834C10.8323 14.6806 10.3467 15.1667 9.74893 15.1667ZM13 21.6667C12.4023 21.6667 11.9167 21.1806 11.9167 20.5834C11.9167 19.9862 12.4023 19.5001 13 19.5001C13.5977 19.5001 14.0833 19.9862 14.0833 20.5834C14.0833 21.1806 13.5977 21.6667 13 21.6667ZM13 18.4167C12.4023 18.4167 11.9167 17.9306 11.9167 17.3334C11.9167 16.7362 12.4023 16.2501 13 16.2501C13.5977 16.2501 14.0833 16.7362 14.0833 17.3334C14.0833 17.9306 13.5977 18.4167 13 18.4167ZM13 15.1667C12.4023 15.1667 11.9167 14.6806 11.9167 14.0834C11.9167 13.4862 12.4023 13.0001 13 13.0001C13.5977 13.0001 14.0833 13.4862 14.0833 14.0834C14.0833 14.6806 13.5977 15.1667 13 15.1667ZM16.2489 21.6667C15.6512 21.6667 15.1656 21.1806 15.1656 20.5834C15.1656 19.9862 15.6512 19.5001 16.2489 19.5001C16.8467 19.5001 17.3322 19.9862 17.3322 20.5834C17.3323 21.1806 16.8467 21.6667 16.2489 21.6667ZM16.2489 18.4167C15.6512 18.4167 15.1656 17.9306 15.1656 17.3334C15.1656 16.7362 15.6512 16.2501 16.2489 16.2501C16.8467 16.2501 17.3322 16.7362 17.3322 17.3334C17.3323 17.9306 16.8467 18.4167 16.2489 18.4167ZM16.2489 15.1667C15.6512 15.1667 15.1656 14.6806 15.1656 14.0834C15.1656 13.4862 15.6512 13.0001 16.2489 13.0001C16.8467 13.0001 17.3322 13.4862 17.3322 14.0834C17.3323 14.6806 16.8467 15.1667 16.2489 15.1667Z" fill="black" fill-opacity="0.61"/>
</g>
<defs>
<clipPath id="clip0">
<rect width="26" height="26" fill="white"/>
</clipPath>
</defs>
</svg>
