<svg width="126" height="126" viewBox="0 0 126 126" fill="none" xmlns="http://www.w3.org/2000/svg">
<path d="M63 0L65.2874 39.0451L74.9228 1.13849L69.7796 39.9109L86.4147 4.51282L74.0267 41.6112L97.0604 10.001L77.8753 44.0845L106.475 17.4048L81.1862 47.2415L114.318 26.4564L83.8399 50.9681L120.307 36.8289L85.7404 55.1295L124.224 48.1472L86.8189 59.5754L125.929 60.0023L87.0366 64.145L125.359 71.9658L86.3855 68.6733L122.535 83.6053L84.8893 72.9965L117.56 94.5L82.6018 76.9584L110.612 104.256L79.606 80.4158L101.944 112.521L76.0099 83.2438L91.8683 118.997L71.9436 85.3401L80.7492 123.448L67.5541 86.629L68.9885 125.715L63 87.0639L57.0115 125.715L58.4459 86.629L45.2508 123.448L54.0564 85.3401L34.1317 118.997L49.9901 83.2438L24.056 112.521L46.394 80.4158L15.3878 104.256L43.3982 76.9584L8.4404 94.5L41.1107 72.9965L3.46495 83.6053L39.6145 68.6733L0.641251 71.9658L38.9634 64.145L0.0713577 60.0023L39.1811 59.5754L1.77587 48.1472L40.2596 55.1295L5.69318 36.8289L42.1601 50.9681L11.6817 26.4564L44.8138 47.2415L19.525 17.4048L48.1247 44.0845L28.9396 10.001L51.9733 41.6112L39.5853 4.51282L56.2204 39.9109L51.0772 1.13849L60.7126 39.0451L63 0Z" fill="#1414F9" fill-opacity="0.38"/>
</svg>
