<svg width="92" height="104" viewBox="0 0 92 104" fill="none" xmlns="http://www.w3.org/2000/svg">
<path d="M12.3035 7.76584C-15.1848 32.047 20.191 55.5833 16.8216 82.1153C15.3235 93.9112 20.0825 105.188 35.6523 103.899C54.6268 102.329 47.739 84.1536 51.7126 72.0537C58.5497 51.2332 100.611 56.0962 83.1756 24.0252C72.0488 3.55872 31.2231 -8.94627 12.3035 7.76584Z" fill="url(#paint0_linear)"/>
<path opacity="0.1" d="M89.572 29.2357C88.0648 27.7285 85.6212 27.7285 84.114 29.2357L73.909 39.4407H60.2115V27.1171C60.2115 25.9958 59.3015 25.0858 58.1802 25.0858H13.6959C12.5746 25.0858 11.6646 25.9958 11.6646 27.1171V83.5858C11.6646 88.0728 15.3026 91.7108 19.7896 91.7108H69.3521C73.8392 91.7108 77.4771 88.0728 77.4771 83.5858V46.7885L89.5722 34.6936C91.0792 33.1864 91.0792 30.7428 89.572 29.2357Z" fill="#2626BC"/>
<path d="M77.4768 35.9875V78.1015C77.4768 82.5885 73.8389 86.2265 69.3518 86.2265H31.6539V33.9563H75.4456C76.4673 33.9563 77.3143 34.7119 77.4545 35.695C77.4707 35.7905 77.4768 35.888 77.4768 35.9875Z" fill="#B7C5FF"/>
<path d="M77.4769 35.9874V46.5885L46.3216 77.7439C45.767 78.2984 45.1048 78.7331 44.3736 79.0215L38.6373 81.2904C37.8106 81.6154 36.992 80.7989 37.3191 79.9721L39.5859 74.2339C39.8744 73.5046 40.3091 72.8404 40.8636 72.2859L77.4545 35.6949C77.4708 35.7904 77.4769 35.8879 77.4769 35.9874Z" fill="#9FB0FE"/>
<path d="M68.3362 86.2264H19.7894C15.3023 86.2264 11.6644 82.5885 11.6644 78.1014V21.6327C11.6644 20.5114 12.5744 19.6014 13.6956 19.6014H58.18C59.3012 19.6014 60.2112 20.5114 60.2112 21.6327V78.1014C60.2112 82.5885 63.8492 86.2264 68.3362 86.2264Z" fill="white"/>
<path d="M60.2113 36.901V21.6327C60.2113 20.5114 59.3013 19.6014 58.18 19.6014H13.6956C12.5744 19.6014 11.6644 20.5114 11.6644 21.6327V36.901H60.2113Z" fill="#FFC4DF"/>
<path d="M60.2113 52.9384V63.8543L46.3216 77.744C45.767 78.2985 45.1048 78.7332 44.3736 79.0216L38.6373 81.2906C37.8106 81.6155 36.992 80.799 37.3191 79.9723L39.5859 74.234C39.8744 73.5048 40.3091 72.8405 40.8636 72.286L60.2113 52.9384Z" fill="#D2DEFF"/>
<path d="M52.4512 66.6149H19.054C18.493 66.6149 18.0384 66.1601 18.0384 65.5992C18.0384 65.0384 18.493 64.5836 19.054 64.5836H52.4512C53.0123 64.5836 53.4669 65.0384 53.4669 65.5992C53.4669 66.1601 53.0123 66.6149 52.4512 66.6149Z" fill="#B7C5FF"/>
<path d="M38.7694 76.1155H19.0543C18.4932 76.1155 18.0386 75.6607 18.0386 75.0999C18.0386 74.539 18.4932 74.0842 19.0543 74.0842H38.7694C39.3304 74.0842 39.785 74.539 39.785 75.0999C39.785 75.6607 39.3302 76.1155 38.7694 76.1155Z" fill="#B7C5FF"/>
<path d="M52.4512 54.4274H19.054C18.493 54.4274 18.0384 53.9726 18.0384 53.4117C18.0384 52.8509 18.493 52.3961 19.054 52.3961H52.4512C53.0123 52.3961 53.4669 52.8509 53.4669 53.4117C53.4669 53.9726 53.0123 54.4274 52.4512 54.4274Z" fill="#B7C5FF"/>
<path d="M52.4512 58.4899H19.054C18.493 58.4899 18.0384 58.0351 18.0384 57.4742C18.0384 56.9134 18.493 56.4586 19.054 56.4586H52.4512C53.0123 56.4586 53.4669 56.9134 53.4669 57.4742C53.4669 58.0351 53.0123 58.4899 52.4512 58.4899Z" fill="#B7C5FF"/>
<path d="M52.4512 62.5524H19.054C18.493 62.5524 18.0384 62.0976 18.0384 61.5367C18.0384 60.9759 18.493 60.5211 19.054 60.5211H52.4512C53.0123 60.5211 53.4669 60.9759 53.4669 61.5367C53.4669 62.0976 53.0123 62.5524 52.4512 62.5524Z" fill="#B7C5FF"/>
<path d="M27.8102 42.24H19.054C18.493 42.24 18.0384 41.7852 18.0384 41.2244C18.0384 40.6635 18.493 40.2087 19.054 40.2087H27.8102C28.3712 40.2087 28.8258 40.6635 28.8258 41.2244C28.8258 41.7852 28.3712 42.24 27.8102 42.24Z" fill="#B7C5FF"/>
<path d="M27.8102 33.5055H19.054C18.493 33.5055 18.0384 33.0507 18.0384 32.4899C18.0384 31.929 18.493 31.4742 19.054 31.4742H27.8102C28.3712 31.4742 28.8258 31.929 28.8258 32.4899C28.8258 33.0507 28.3712 33.5055 27.8102 33.5055Z" fill="#FF7EB8"/>
<path d="M27.8102 29.8201H19.054C18.493 29.8201 18.0384 29.3653 18.0384 28.8044C18.0384 28.2436 18.493 27.7888 19.054 27.7888H27.8102C28.3712 27.7888 28.8258 28.2436 28.8258 28.8044C28.8258 29.3653 28.3712 29.8201 27.8102 29.8201Z" fill="#FF7EB8"/>
<path d="M51.4192 29.8201H49.3662C48.8051 29.8201 48.3506 29.3653 48.3506 28.8044C48.3506 28.2436 48.8051 27.7888 49.3662 27.7888H51.4192C51.9802 27.7888 52.4348 28.2436 52.4348 28.8044C52.4348 29.3653 51.9802 29.8201 51.4192 29.8201Z" fill="white"/>
<path d="M52.4512 46.3025H19.054C18.493 46.3025 18.0384 45.8477 18.0384 45.2869C18.0384 44.726 18.493 44.2712 19.054 44.2712H52.4512C53.0123 44.2712 53.4669 44.726 53.4669 45.2869C53.4669 45.8477 53.0123 46.3025 52.4512 46.3025Z" fill="#B7C5FF"/>
<path d="M52.4512 50.365H19.054C18.493 50.365 18.0384 49.9102 18.0384 49.3494C18.0384 48.7885 18.493 48.3337 19.054 48.3337H52.4512C53.0123 48.3337 53.4669 48.7885 53.4669 49.3494C53.4669 49.9102 53.0123 50.365 52.4512 50.365Z" fill="#B7C5FF"/>
<path d="M3.53451 62.7381C3.27451 62.7381 3.01472 62.639 2.81626 62.4405L0.58189 60.2062C0.185187 59.8097 0.185187 59.1666 0.58189 58.7701L2.81626 56.5357C3.21297 56.139 3.85586 56.139 4.25256 56.5357L6.48694 58.7701C6.88364 59.1666 6.88364 59.8097 6.48694 60.2062L4.25256 62.4405C4.05431 62.639 3.79451 62.7381 3.53451 62.7381ZM2.73644 59.4881L3.53451 60.2862L4.33259 59.4881L3.53451 58.69L2.73644 59.4881Z" fill="#01ECA5"/>
<path d="M5.76889 89.4764C5.20806 89.4764 4.75327 89.0218 4.75327 88.4608C4.75327 87.7887 4.20666 87.2421 3.53452 87.2421C2.97369 87.2421 2.51889 86.7875 2.51889 86.2264C2.51889 85.6654 2.97369 85.2108 3.53452 85.2108C4.20666 85.2108 4.75327 84.6642 4.75327 83.9921C4.75327 83.431 5.20806 82.9764 5.76889 82.9764C6.32972 82.9764 6.78452 83.431 6.78452 83.9921C6.78452 84.6642 7.33113 85.2108 8.00327 85.2108C8.56409 85.2108 9.01889 85.6654 9.01889 86.2264C9.01889 86.7875 8.56409 87.2421 8.00327 87.2421C7.33113 87.2421 6.78452 87.7887 6.78452 88.4608C6.78452 89.0218 6.32972 89.4764 5.76889 89.4764Z" fill="#FF7EB8"/>
<path d="M71.3831 25.8707C70.8223 25.8707 70.3675 25.4161 70.3675 24.8551C70.3675 24.183 69.8209 23.6364 69.1487 23.6364C68.5879 23.6364 68.1331 23.1818 68.1331 22.6207C68.1331 22.0597 68.5879 21.6051 69.1487 21.6051C69.8209 21.6051 70.3675 21.0585 70.3675 20.3864C70.3675 19.8253 70.8223 19.3707 71.3831 19.3707C71.9439 19.3707 72.3987 19.8253 72.3987 20.3864C72.3987 21.0585 72.9454 21.6051 73.6175 21.6051C74.1783 21.6051 74.6331 22.0597 74.6331 22.6207C74.6331 23.1818 74.1783 23.6364 73.6175 23.6364C72.9454 23.6364 72.3987 24.183 72.3987 24.8551C72.3987 25.4161 71.9439 25.8707 71.3831 25.8707Z" fill="#6583FE"/>
<path d="M64.0984 17.0427C63.5376 17.0427 63.0828 16.5881 63.0828 16.0271C63.0828 15.355 62.536 14.8083 61.8641 14.8083C61.3032 14.8083 60.8484 14.3538 60.8484 13.7927C60.8484 13.2317 61.3032 12.7771 61.8641 12.7771C62.5362 12.7771 63.0828 12.2305 63.0828 11.5583C63.0828 10.9973 63.5376 10.5427 64.0984 10.5427C64.6593 10.5427 65.1141 10.9973 65.1141 11.5583C65.1141 12.2305 65.6607 12.7771 66.3328 12.7771C66.8937 12.7771 67.3484 13.2317 67.3484 13.7927C67.3484 14.3538 66.8937 14.8083 66.3328 14.8083C65.6609 14.8083 65.1141 15.355 65.1141 16.0271C65.1141 16.5881 64.6595 17.0427 64.0984 17.0427Z" fill="#FF7EB8"/>
<path d="M52.7279 35.3293C52.7279 33.416 51.1714 31.8595 49.2581 31.8595C47.3449 31.8595 45.7884 33.416 45.7884 35.3293C45.7884 36.273 46.168 37.1286 46.7814 37.7548C46.1682 38.3808 45.7884 39.2368 45.7884 40.1803C45.7884 40.757 46.256 41.2246 46.8326 41.2246C47.4093 41.2246 47.8769 40.757 47.8769 40.1803C47.8769 39.4188 48.4966 38.7991 49.2581 38.7991C50.0197 38.7991 50.6394 39.4186 50.6394 40.1803C50.6394 40.757 51.107 41.2246 51.6837 41.2246C52.2603 41.2246 52.7279 40.757 52.7279 40.1803C52.7279 39.2368 52.3483 38.381 51.7349 37.7548C52.3483 37.1286 52.7279 36.2728 52.7279 35.3293ZM49.2581 33.948C50.0197 33.948 50.6394 34.5676 50.6394 35.3293C50.6394 36.0908 50.0197 36.7105 49.2581 36.7105C48.4966 36.7105 47.8769 36.091 47.8769 35.3293C47.8769 34.5676 48.4966 33.948 49.2581 33.948Z" fill="#02FFB3"/>
<path d="M44.3746 73.7374L38.6365 76.0045C37.8098 76.3311 36.9923 75.5133 37.3187 74.6868L39.5858 68.9487C39.8742 68.2189 40.3093 67.5559 40.8642 67.0009L84.114 23.7514C85.6212 22.2442 88.0648 22.2442 89.572 23.7514C91.0792 25.2585 91.0792 27.7021 89.572 29.2093L46.3224 72.4587C45.7675 73.0136 45.1045 73.4489 44.3746 73.7374Z" fill="#FF7EB8"/>
<path d="M79.9724 27.8871L81.3367 26.5228L86.7939 31.9799L85.4296 33.3442L79.9724 27.8871Z" fill="#FFC4DF"/>
<path d="M72.9983 34.8604L78.7067 29.1519L84.1639 34.609L78.4554 40.3175L72.9983 34.8604Z" fill="#FFC4DF"/>
<path d="M70.852 41.0349L77.0435 34.8435C77.4402 34.4468 78.0833 34.447 78.4798 34.8435C78.8763 35.24 78.8765 35.8831 78.4798 36.2798L72.2883 42.4712C71.8916 42.8679 71.2485 42.8677 70.852 42.4712C70.4555 42.0747 70.4555 41.4316 70.852 41.0349Z" fill="#FF5BA8"/>
<path d="M85.0195 57.6774C84.7595 57.6774 84.4997 57.5783 84.3012 57.3799L82.0669 55.1455C81.6702 54.749 81.6702 54.1059 82.0669 53.7094L84.3012 51.475C84.6979 51.0783 85.3408 51.0783 85.7375 51.475L87.9719 53.7094C88.3686 54.1059 88.3686 54.749 87.9719 55.1455L85.7375 57.3799C85.5393 57.5783 85.2795 57.6774 85.0195 57.6774ZM84.2214 54.4274L85.0195 55.2255L85.8176 54.4274L85.0195 53.6294L84.2214 54.4274Z" fill="#01ECA5"/>
<path d="M83.4496 23.0334L73.5426 32.9402H67.1023C66.5414 32.9402 66.0867 33.3948 66.0867 33.9558C66.0867 34.5168 66.5414 34.9714 67.1023 34.9714H71.5113L61.2805 45.202V21.6328C61.2805 19.9528 59.9137 18.5859 58.2336 18.5859H13.7493C12.0692 18.5859 10.7024 19.9528 10.7024 21.6328V78.1016C10.7024 83.1417 14.8029 87.2422 19.843 87.2422H31.7078H68.3899H69.4055C74.4457 87.2422 78.5461 83.1417 78.5461 78.1016V41.8098C78.5461 41.7834 78.5402 41.7586 78.5384 41.7326L90.3436 29.9274C92.2443 28.0268 92.2443 24.934 90.3436 23.0334C88.443 21.1327 85.3504 21.1323 83.4496 23.0334ZM76.5151 78.1016C76.5151 82.0217 73.3258 85.2109 69.4057 85.2109H68.3901C64.47 85.2109 61.2807 82.0217 61.2807 78.1016V65.5994C61.2807 65.0384 60.8259 64.5838 60.2651 64.5838C59.7043 64.5838 59.2495 65.0384 59.2495 65.5994V78.1016C59.2495 80.9699 60.5775 83.5337 62.651 85.2109H31.708H19.8432C15.9231 85.2109 12.7338 82.0217 12.7338 78.1016V21.6328C12.7338 21.0728 13.1895 20.6172 13.7495 20.6172H58.2338C58.7939 20.6172 59.2495 21.0728 59.2495 21.6328V47.2333L40.2002 66.2825C39.5431 66.9394 39.0367 67.7109 38.6953 68.5754L36.4282 74.3135C36.1259 75.0783 36.2994 75.9145 36.8809 76.4959C37.2734 76.8885 37.782 77.0951 38.3063 77.0951C38.559 77.0951 38.8151 77.0471 39.0637 76.9488L44.8018 74.6818C45.6659 74.3401 46.4374 73.8339 47.0947 73.1768L76.5153 43.756V78.1016H76.5151ZM88.9075 28.4913L45.6582 71.7407C45.1987 72.2002 44.6594 72.5542 44.0551 72.7929L38.317 75.06L40.5843 69.3219C40.823 68.7176 41.1768 68.1785 41.6363 67.719L84.8859 24.4695C85.4402 23.9151 86.1684 23.6379 86.8966 23.6379C87.6248 23.6379 88.353 23.9151 88.9073 24.4695C90.0162 25.5783 90.0162 27.3825 88.9075 28.4913Z" fill="#2626BC"/>
<defs>
<linearGradient id="paint0_linear" x1="1.76696" y1="52" x2="87.3744" y2="52" gradientUnits="userSpaceOnUse">
<stop offset="0.0485" stop-color="#D2DEFF"/>
<stop offset="0.9993" stop-color="#DCFDEE"/>
</linearGradient>
</defs>
</svg>
