<svg width="102" height="104" viewBox="0 0 102 104" fill="none" xmlns="http://www.w3.org/2000/svg">
<path d="M92.6757 5.55591C79.7251 -2.1602 62.9671 -1.73181 50.2484 6.17361C43.1025 10.6151 37.5787 17.0211 31.3147 22.5357C25.8259 27.3679 19.4431 30.8147 13.7743 35.3741C-6.78403 51.909 -4.82245 96.5068 24.1259 102.431C36.6744 104.999 53.8248 105.822 61.2001 93.5659C68.2323 81.8799 70.591 69.9256 84.3311 63.7183C89.1194 61.555 97.1229 61.6641 100.367 56.9238C104.46 50.9418 99.3809 44.7276 96.6714 39.5146C93.1797 32.7964 92.4474 26.1729 94.9044 18.9664C96.9962 12.8298 98.469 10.0732 92.6757 5.55591Z" fill="url(#paint0_linear)"/>
<path opacity="0.1" d="M75.2143 62.4159C66.8148 62.4159 59.6358 67.6387 56.7461 75.0137C56.726 75.0064 56.708 74.9959 56.687 74.9898L45.5879 71.7412C46.2529 69.7587 46.6139 67.6369 46.6139 65.4303C46.6139 60.3089 44.672 55.6411 41.4845 52.1228L53.5961 43.8863C53.6105 43.8763 53.6217 43.8637 53.6355 43.8531C57.2684 48.4119 62.8673 51.3342 69.1498 51.3342C80.1006 51.3342 88.978 42.4569 88.978 31.506C88.978 20.5551 80.1006 11.6777 69.1498 11.6777C58.1989 11.6777 49.3215 20.5551 49.3215 31.506C49.3215 35.4472 50.4716 39.1197 52.4541 42.2066H52.4539L40.2028 50.5382C40.1409 50.5802 40.086 50.6288 40.0367 50.6812C36.5248 47.524 31.88 45.6023 26.7858 45.6023C15.8349 45.6023 6.95757 54.4796 6.95757 65.4305C6.95757 76.3814 15.8349 85.2588 26.7858 85.2588C34.8131 85.2588 41.7261 80.4884 44.8451 73.628C44.8814 73.6435 44.9159 73.6611 44.9547 73.6725L56.1057 76.9363C55.6373 78.6259 55.386 80.4057 55.386 82.2444C55.386 93.1953 64.2634 102.073 75.2143 102.073C86.1651 102.073 95.0425 93.1953 95.0425 82.2444C95.0425 71.2933 86.1651 62.4159 75.2143 62.4159Z" fill="#2626BC"/>
<path d="M69.1498 46.4592C80.1006 46.4592 88.978 37.5818 88.978 26.631C88.978 15.6801 80.1006 6.80273 69.1498 6.80273C58.1989 6.80273 49.3215 15.6801 49.3215 26.631C49.3215 37.5818 58.1989 46.4592 69.1498 46.4592Z" fill="#6583FE"/>
<path d="M82.1037 24.6554V41.6428C78.6303 44.6429 74.1026 46.4589 69.1504 46.4589C67.9723 46.4589 66.8186 46.3553 65.6973 46.1582V38.9818H60.2393C59.4289 38.9818 58.8114 38.2546 58.9434 37.4543L59.1282 36.3311L59.4634 34.2957L59.8311 32.0634H57.5093C56.7842 32.0634 56.1971 31.4743 56.1971 30.7492V24.6554C56.1971 17.5014 61.9964 11.7021 69.1504 11.7021C76.3045 11.7021 82.1037 17.5014 82.1037 24.6554Z" fill="white"/>
<path d="M67.6046 34.9944C67.5031 35.0493 65.0554 36.3208 59.1282 36.331L59.4634 34.2957C64.5496 34.2449 66.6316 33.209 66.654 33.1988C67.1496 32.9449 67.763 33.1358 68.021 33.6294C68.279 34.123 68.0962 34.7304 67.6046 34.9944Z" fill="#6583FE"/>
<path d="M66.1622 26.9699C65.6012 26.9699 65.1466 26.5151 65.1466 25.9543V25.4946C65.1466 24.9338 65.6012 24.479 66.1622 24.479C66.7233 24.479 67.1779 24.9338 67.1779 25.4946V25.9543C67.1779 26.5151 66.7231 26.9699 66.1622 26.9699Z" fill="#6583FE"/>
<path d="M74.5604 32.5352C73.3583 32.5352 72.1564 32.0777 71.2414 31.1627C70.8447 30.7662 70.8447 30.1231 71.2412 29.7264C71.6379 29.3297 72.2808 29.3294 72.6775 29.7264C73.7156 30.7643 75.4048 30.7643 76.443 29.7264C77.481 28.6882 77.481 26.9992 76.443 25.961C75.4046 24.9229 73.7154 24.9229 72.6775 25.961C72.2808 26.3575 71.6379 26.3577 71.2412 25.961C70.8447 25.5643 70.8447 24.9212 71.2414 24.5247C73.0719 22.695 76.0495 22.6948 77.8793 24.5247C79.7094 26.3547 79.7094 29.3325 77.8795 31.1627C76.9644 32.0777 75.7623 32.5352 74.5604 32.5352Z" fill="#6583FE"/>
<path d="M26.7856 80.3836C37.7365 80.3836 46.6139 71.5062 46.6139 60.5553C46.6139 49.6045 37.7365 40.7271 26.7856 40.7271C15.8348 40.7271 6.95737 49.6045 6.95737 60.5553C6.95737 71.5062 15.8348 80.3836 26.7856 80.3836Z" fill="#02FFB3"/>
<path d="M39.7395 58.5798V75.5671C36.266 78.5673 31.7384 80.3832 26.7862 80.3832C25.6081 80.3832 24.4543 80.2796 23.3331 80.0826V72.9062H17.8751C17.0646 72.9062 16.4471 72.179 16.5792 71.3787L16.764 70.2554L17.0992 68.2201L17.4668 65.9877H15.1451C14.4199 65.9877 13.8329 65.3987 13.8329 64.6735V58.5798C13.8329 51.4257 19.6321 45.6265 26.7862 45.6265C33.9403 45.6265 39.7395 51.4257 39.7395 58.5798Z" fill="white"/>
<path d="M25.2404 68.9187C25.1389 68.9736 22.6912 70.2451 16.764 70.2553L17.0992 68.22C22.1854 68.1692 24.2675 67.1333 24.2898 67.1231C24.7854 66.8692 25.3989 67.0601 25.6568 67.5537C25.9148 68.0473 25.732 68.6547 25.2404 68.9187Z" fill="#02FFB3"/>
<path d="M23.7981 60.8945C23.237 60.8945 22.7824 60.4397 22.7824 59.8789V59.4192C22.7824 58.8584 23.237 58.4036 23.7981 58.4036C24.3591 58.4036 24.8137 58.8584 24.8137 59.4192V59.8789C24.8137 60.4397 24.3589 60.8945 23.7981 60.8945Z" fill="#02FFB3"/>
<path d="M32.1962 66.4597C30.9941 66.4597 29.7922 66.0023 28.8772 65.0872C28.4805 64.6907 28.4805 64.0476 28.877 63.6509C29.2737 63.2542 29.9165 63.254 30.3133 63.6509C31.3514 64.6889 33.0406 64.6889 34.0788 63.6509C35.1167 62.6127 35.1167 60.9238 34.0788 59.8856C33.0404 58.8474 31.3512 58.8474 30.3133 59.8856C29.9165 60.2821 29.2737 60.2823 28.877 59.8856C28.4805 59.4889 28.4805 58.8458 28.8772 58.4493C30.7077 56.6195 33.6853 56.6193 35.5151 58.4493C37.3452 60.2792 37.3452 63.2571 35.5153 65.0872C34.6002 66.0023 33.3981 66.4597 32.1962 66.4597Z" fill="#02FFB3"/>
<path d="M75.2142 97.1974C86.1651 97.1974 95.0425 88.32 95.0425 77.3692C95.0425 66.4183 86.1651 57.5409 75.2142 57.5409C64.2634 57.5409 55.386 66.4183 55.386 77.3692C55.386 88.32 64.2634 97.1974 75.2142 97.1974Z" fill="#FF7EB8"/>
<path d="M88.1682 75.3936V92.3809C84.6947 95.3811 80.1671 97.197 75.2149 97.197C74.0368 97.197 72.883 97.0934 71.7618 96.8964V89.72H66.3038C65.4933 89.72 64.8758 88.9928 65.0079 88.1925L65.1927 87.0692L65.5279 85.0339L65.8955 82.8016H63.5738C62.8486 82.8016 62.2616 82.2125 62.2616 81.4873V75.3936C62.2616 68.2395 68.0608 62.4403 75.2149 62.4403C82.369 62.4403 88.1682 68.2395 88.1682 75.3936Z" fill="white"/>
<path d="M73.669 85.7326C73.5675 85.7874 71.1198 87.059 65.1926 87.0691L65.5278 85.0338C70.614 84.983 72.6961 83.9471 72.7184 83.937C73.214 83.683 73.8275 83.874 74.0855 84.3676C74.3434 84.8612 74.1606 85.4685 73.669 85.7326Z" fill="#FF7EB8"/>
<path d="M72.2265 77.7081C71.6654 77.7081 71.2108 77.2533 71.2108 76.6925V76.2328C71.2108 75.672 71.6654 75.2172 72.2265 75.2172C72.7875 75.2172 73.2421 75.672 73.2421 76.2328V76.6925C73.2421 77.2533 72.7875 77.7081 72.2265 77.7081Z" fill="#FF7EB8"/>
<path d="M80.6248 83.2736C79.4228 83.2736 78.2209 82.8161 77.3058 81.901C76.9091 81.5045 76.9091 80.8615 77.3056 80.4648C77.7023 80.0681 78.3452 80.0679 78.7419 80.4648C79.78 81.5027 81.4692 81.5027 82.5074 80.4648C83.5454 79.4266 83.5454 77.7376 82.5074 76.6994C81.469 75.6613 79.7798 75.6613 78.7419 76.6994C78.3452 77.0959 77.7023 77.0961 77.3056 76.6994C76.9091 76.3027 76.9091 75.6596 77.3058 75.2631C79.1363 73.4334 82.114 73.4332 83.9437 75.2631C85.7739 77.0931 85.7739 80.0709 83.9439 81.901C83.0288 82.8159 81.8267 83.2736 80.6248 83.2736Z" fill="#FF7EB8"/>
<path d="M30.5012 28.7634C29.9402 28.7634 29.4856 28.3086 29.4856 27.7478C29.4856 27.0757 28.9388 26.5291 28.2666 26.5291C27.7056 26.5291 27.251 26.0743 27.251 25.5134C27.251 24.9526 27.7056 24.4978 28.2666 24.4978C28.9388 24.4978 29.4856 23.9512 29.4856 23.2791C29.4856 22.7182 29.9402 22.2634 30.5012 22.2634C31.0622 22.2634 31.5168 22.7182 31.5168 23.2791C31.5168 23.9512 32.0634 24.4978 32.7354 24.4978C33.2964 24.4978 33.751 24.9526 33.751 25.5134C33.751 26.0743 33.2964 26.5291 32.7354 26.5291C32.0634 26.5291 31.5168 27.0757 31.5168 27.7478C31.5168 28.3086 31.0622 28.7634 30.5012 28.7634Z" fill="#01ECA5"/>
<path d="M91.1682 49.7531C90.6071 49.7531 90.1525 49.2983 90.1525 48.7374C90.1525 48.0653 89.6059 47.5187 88.9338 47.5187C88.3727 47.5187 87.9182 47.0639 87.9182 46.5031C87.9182 45.9422 88.3727 45.4874 88.9338 45.4874C89.6059 45.4874 90.1525 44.9408 90.1525 44.2687C90.1525 43.7078 90.6071 43.2531 91.1682 43.2531C91.7292 43.2531 92.1838 43.7078 92.1838 44.2687C92.1838 44.9408 92.7304 45.4874 93.4025 45.4874C93.9636 45.4874 94.4182 45.9422 94.4182 46.5031C94.4182 47.0639 93.9636 47.5187 93.4025 47.5187C92.7304 47.5187 92.1838 48.0653 92.1838 48.7374C92.1838 49.2983 91.7292 49.7531 91.1682 49.7531Z" fill="#FF7EB8"/>
<path d="M37.1875 91.538C36.6264 91.538 36.1718 91.0832 36.1718 90.5223C36.1718 89.8502 35.6252 89.3036 34.9531 89.3036C34.392 89.3036 33.9375 88.8488 33.9375 88.288C33.9375 87.7271 34.392 87.2723 34.9531 87.2723C35.6252 87.2723 36.1718 86.7257 36.1718 86.0536C36.1718 85.4928 36.6264 85.038 37.1875 85.038C37.7485 85.038 38.2031 85.4928 38.2031 86.0536C38.2031 86.7257 38.7497 87.2723 39.4218 87.2723C39.9829 87.2723 40.4375 87.7271 40.4375 88.288C40.4375 88.8488 39.9829 89.3036 39.4218 89.3036C38.7497 89.3036 38.2031 89.8502 38.2031 90.5223C38.2031 91.0832 37.7485 91.538 37.1875 91.538Z" fill="#01ECA5"/>
<path d="M38.015 34.654C37.7552 34.654 37.495 34.5548 37.2969 34.3566L35.0626 32.1222C34.6659 31.7255 34.6659 31.0824 35.0626 30.6859L37.2969 28.4515C37.6932 28.055 38.3367 28.055 38.733 28.4515L40.9674 30.6859C41.3641 31.0826 41.3641 31.7257 40.9674 32.1222L38.733 34.3566C38.535 34.5546 38.275 34.654 38.015 34.654ZM37.2171 31.404L38.0152 32.2021L38.8133 31.404L38.0152 30.6059L37.2171 31.404Z" fill="#FF7EB8"/>
<path d="M48.846 94.2338C48.5862 94.2338 48.326 94.1347 48.128 93.9364L45.8936 91.702C45.4969 91.3053 45.4969 90.6623 45.8936 90.2658L48.128 88.0314C48.5243 87.6349 49.1678 87.6349 49.5641 88.0314L51.7984 90.2658C52.1951 90.6625 52.1951 91.3055 51.7984 91.702L49.5641 93.9364C49.366 94.1347 49.106 94.2338 48.846 94.2338ZM48.0481 90.9838L48.8462 91.7819L49.6443 90.9838L48.8462 90.1857L48.0481 90.9838Z" fill="#6583FE"/>
<path d="M26.7856 81.3994C35.2553 81.3994 42.5605 76.3212 45.8184 69.0502L55.1301 71.7755C54.6286 73.5803 54.3704 75.4578 54.3704 77.3692C54.3704 88.8626 63.7209 98.213 75.2143 98.213C86.7077 98.213 96.0582 88.8626 96.0582 77.3692C96.0582 65.8758 86.7077 56.5253 75.2143 56.5253C70.8802 56.5253 66.7245 57.8436 63.1964 60.3373C62.7383 60.6611 62.6295 61.2949 62.9532 61.7529C63.2772 62.2112 63.9112 62.3196 64.3688 61.9961C67.5522 59.7458 71.3027 58.5565 75.2145 58.5565C85.5877 58.5565 94.0271 66.9958 94.0271 77.3692C94.0271 87.7426 85.5877 96.1818 75.2145 96.1818C64.8413 96.1818 56.4019 87.7426 56.4019 77.3692C56.4019 73.4895 57.5741 69.764 59.7918 66.5954C60.1134 66.1357 60.0016 65.5026 59.5422 65.1811C59.0827 64.8595 58.4494 64.971 58.1276 65.4307C57.1583 66.8156 56.3722 68.2976 55.772 69.847L46.5598 67.1508C47.2533 65.0771 47.6299 62.8595 47.6299 60.5555C47.6299 55.2302 45.6216 50.3657 42.3237 46.6774L52.8043 39.5499C56.6253 44.3742 62.5324 47.4749 69.1502 47.4749C74.1113 47.4749 78.9177 45.7022 82.6838 42.4833C86.4079 39.3005 88.9017 34.9006 89.7058 30.0943C89.7982 29.541 89.4249 29.0175 88.8718 28.9249C88.3197 28.8333 87.795 29.2058 87.7024 29.7589C86.977 34.0954 84.726 38.0659 81.3641 40.9391C77.9654 43.8438 73.6277 45.4436 69.1502 45.4436C58.7768 45.4436 50.3374 37.0044 50.3374 26.631C50.3374 16.2576 58.7768 7.81836 69.1502 7.81836C78.2628 7.81836 86.0486 14.3165 87.663 23.2695C87.7625 23.8216 88.29 24.1878 88.8429 24.0887C89.3948 23.9891 89.7617 23.461 89.6622 22.9089C87.8728 12.9879 79.2465 5.78711 69.15 5.78711C57.6566 5.78711 48.3059 15.1376 48.3059 26.631C48.3059 30.7788 49.5242 34.6473 51.6211 37.8981L40.8734 45.2072C37.1608 41.7967 32.2125 39.7114 26.7856 39.7114C15.2922 39.7114 5.94174 49.0619 5.94174 60.5553C5.94174 72.0487 15.2922 81.3994 26.7856 81.3994ZM26.7856 41.7427C37.1588 41.7427 45.5982 50.1819 45.5982 60.5553C45.5982 70.9287 37.1588 79.3679 26.7856 79.3679C16.4124 79.3679 7.97299 70.9287 7.97299 60.5553C7.97299 50.1819 16.4124 41.7427 26.7856 41.7427Z" fill="#2626BC"/>
<defs>
<linearGradient id="paint0_linear" x1="0.0966259" y1="52" x2="101.903" y2="52" gradientUnits="userSpaceOnUse">
<stop stop-color="#FFDBED"/>
<stop offset="1" stop-color="#DCFDEE"/>
</linearGradient>
</defs>
</svg>
