<svg width="103" height="104" viewBox="0 0 103 104" fill="none" xmlns="http://www.w3.org/2000/svg">
<g clip-path="url(#clip0)">
<path d="M19.5443 7.76584C-7.67972 32.047 27.356 55.5833 24.0189 82.1153C22.5353 93.9112 27.2486 105.188 42.6686 103.899C61.4607 102.329 54.6391 84.1536 58.5744 72.0537C65.3459 51.2332 107.003 56.0962 89.735 24.0252C78.7152 3.55872 38.282 -8.94627 19.5443 7.76584Z" fill="url(#paint0_linear)"/>
<path opacity="0.1" d="M98.6012 89.8484L75.2324 66.2526C78.1257 62.4981 80.2495 58.1098 81.365 53.328H92.6499C93.761 53.328 94.6616 52.4186 94.6616 51.2967V39.9624C94.6616 38.8405 93.761 37.9311 92.6499 37.9311H81.3937C77.9662 22.9935 64.7055 11.8602 48.8693 11.8602C33.033 11.8602 19.7722 22.9935 16.3446 37.9311H5.19527C4.08419 37.9311 3.18355 38.8405 3.18355 39.9624V51.2967C3.18355 52.4186 4.08419 53.328 5.19527 53.328H16.3734C19.844 68.2055 33.0751 79.2798 48.8691 79.2798C56.5896 79.2798 63.6972 76.6325 69.3528 72.1894L92.7217 95.7852C94.3454 97.4246 96.9777 97.4246 98.6014 95.7852C100.225 94.1458 100.225 91.4877 98.6012 89.8484Z" fill="#2626BC"/>
<path d="M98.6012 90.9102C96.9775 92.5496 94.3452 92.5496 92.7215 90.9102L66.2711 64.2027L72.1507 58.266L98.6014 84.9735C100.225 86.6127 100.225 89.2708 98.6012 90.9102Z" fill="#FF7EB8"/>
<path d="M77.8247 75.8854L83.7034 69.9496L86.2635 72.5345L80.3848 78.4703L77.8247 75.8854Z" fill="#FFC4DF"/>
<path d="M66.2574 64.204L72.1362 58.2682L81.381 67.6028L75.5023 73.5386L66.2574 64.204Z" fill="#FFC4DF"/>
<path d="M48.8691 74.4048C67.3075 74.4048 82.2547 59.3125 82.2547 40.695C82.2547 22.0776 67.3075 6.98523 48.8691 6.98523C30.4307 6.98523 15.4834 22.0776 15.4834 40.695C15.4834 59.3125 30.4307 74.4048 48.8691 74.4048Z" fill="#FF7EB8"/>
<path d="M15.5109 42.0469C15.6443 45.4508 16.278 48.7248 17.339 51.7969H80.3997C81.4605 48.7248 82.0944 45.4508 82.2278 42.0469H15.5109Z" fill="#FF5BA8"/>
<path d="M48.869 67.1013C63.3126 67.1013 75.0214 55.2788 75.0214 40.6951C75.0214 26.1113 63.3126 14.2888 48.869 14.2888C34.4255 14.2888 22.7167 26.1113 22.7167 40.6951C22.7167 55.2788 34.4255 67.1013 48.869 67.1013Z" fill="#97FFD2"/>
<path d="M22.7519 42.0469C22.9255 45.5156 23.7616 48.8077 25.1354 51.7969H72.6026C73.9765 48.8077 74.8127 45.5156 74.9861 42.0469H22.7519Z" fill="#02FFB3"/>
<path d="M35.1524 63.1798C35.4893 62.8414 59.5024 38.6354 71.1239 26.8224C69.3959 24.0022 67.158 21.5343 64.5386 19.5518C63.2539 20.8489 38.8475 45.4922 27.9293 56.5164C29.898 59.1688 32.3501 61.4331 35.1524 63.1798Z" fill="#DCFDEE"/>
<path d="M42.2599 42.0469C38.8732 45.4665 35.5356 48.8365 32.6037 51.7969H46.4373C49.4285 48.7776 52.7577 45.4159 56.0911 42.0469H42.2599Z" fill="#97FFD2"/>
<path d="M53.7207 14.7452C51.1224 17.3507 30.7364 37.867 23.1601 45.5378C23.4623 47.1855 23.9133 48.7809 24.5037 50.3059C35.7983 38.9017 47.0929 27.4974 58.3875 16.0932C56.894 15.5037 55.3333 15.0505 53.7207 14.7452Z" fill="#DCFDEE"/>
<path d="M92.6499 48.453H5.19527C4.08419 48.453 3.18355 47.5436 3.18355 46.4218V35.0874C3.18355 33.9655 4.08419 33.0562 5.19527 33.0562H92.6499C93.761 33.0562 94.6616 33.9655 94.6616 35.0874V46.4218C94.6616 47.5436 93.7608 48.453 92.6499 48.453Z" fill="white"/>
<path d="M92.6499 33.0562H76.6843V48.453H92.6499C93.7609 48.453 94.6616 47.5436 94.6616 46.4218V35.0874C94.6616 33.9655 93.7607 33.0562 92.6499 33.0562Z" fill="#B7C5FF"/>
<path d="M33.132 45.14C32.7451 45.14 32.3927 44.916 32.2253 44.5641L29.0196 37.8245C28.7792 37.3189 28.9903 36.7121 29.491 36.4692C29.9913 36.2265 30.5926 36.4393 30.8332 36.9451L33.1324 41.7793L34.3284 39.2666C34.5688 38.7609 35.1699 38.5482 35.6706 38.7913C36.1713 39.0343 36.3821 39.6412 36.1413 40.1466L34.0383 44.5646C33.8711 44.9162 33.5186 45.14 33.132 45.14Z" fill="#8399FE"/>
<path d="M37.337 45.1393C36.9504 45.1393 36.5979 44.9155 36.4304 44.5637L33.2239 37.825C32.9833 37.3194 33.1943 36.7125 33.6948 36.4698C34.1953 36.227 34.7966 36.4399 35.037 36.9453L37.337 41.7786L39.6368 36.9453C39.8774 36.4395 40.4781 36.227 40.9791 36.4698C41.4798 36.7127 41.6906 37.3194 41.45 37.825L38.2435 44.5637C38.0761 44.9155 37.7237 45.1393 37.337 45.1393Z" fill="#8399FE"/>
<path d="M46.8195 45.14C46.4327 45.14 46.0802 44.916 45.9128 44.5641L42.7072 37.8245C42.4668 37.3189 42.6778 36.7121 43.1785 36.4692C43.6788 36.2265 44.2801 36.4393 44.5207 36.9451L46.8199 41.7791L48.0159 39.2664C48.2565 38.7611 48.8572 38.548 49.3581 38.7911C49.8588 39.0341 50.0697 39.6408 49.8289 40.1464L47.726 44.5644C47.5586 44.9162 47.2062 45.14 46.8195 45.14Z" fill="#8399FE"/>
<path d="M51.0244 45.1393C50.6377 45.1393 50.2853 44.9155 50.1177 44.5637L46.9112 37.825C46.6706 37.3194 46.8816 36.7125 47.3822 36.4698C47.8829 36.227 48.484 36.4399 48.7244 36.9453L51.0242 41.7786L53.324 36.9453C53.5646 36.4395 54.1653 36.227 54.6662 36.4698C55.1669 36.7127 55.3777 37.3194 55.1371 37.825L51.9306 44.5637C51.7637 44.9155 51.4112 45.1393 51.0244 45.1393Z" fill="#8399FE"/>
<path d="M60.507 45.14C60.5068 45.14 60.5068 45.14 60.507 45.14C60.1202 45.14 59.7677 44.916 59.6003 44.5641L56.3947 37.8245C56.1543 37.3189 56.3653 36.7121 56.866 36.4692C57.3665 36.2265 57.9676 36.4393 58.2082 36.9451L60.5074 41.7793L61.7034 39.2666C61.944 38.7609 62.5449 38.5482 63.0456 38.7913C63.5463 39.0343 63.7571 39.6412 63.5163 40.1466L61.4133 44.5646C61.2459 44.9162 60.8937 45.14 60.507 45.14Z" fill="#8399FE"/>
<path d="M64.7119 45.1393C64.3252 45.1393 63.9728 44.9155 63.8052 44.5637L60.5987 37.825C60.3581 37.3194 60.5692 36.7125 61.0697 36.4698C61.5706 36.227 62.1715 36.4399 62.4119 36.9453L64.7119 41.7786L67.0117 36.9453C67.2523 36.4395 67.853 36.227 68.3539 36.4698C68.8546 36.7127 69.0654 37.3194 68.8248 37.825L65.6184 44.5637C65.4512 44.9155 65.0987 45.1393 64.7119 45.1393Z" fill="#8399FE"/>
<path d="M36.3433 90.3774C36.0858 90.3774 35.8285 90.2783 35.632 90.08L33.4191 87.8456C33.0262 87.4489 33.0262 86.8058 33.4191 86.4093L35.632 84.1749C36.0248 83.7784 36.6616 83.7784 37.0544 84.1749L39.2673 86.4093C39.6602 86.806 39.6602 87.4491 39.2673 87.8456L37.0544 90.08C36.8581 90.2781 36.6008 90.3774 36.3433 90.3774ZM35.5531 87.1274L36.3435 87.9255L37.1339 87.1274L36.3435 86.3293L35.5531 87.1274Z" fill="#6583FE"/>
<path d="M87.6739 24.8007C87.4164 24.8007 87.1591 24.7016 86.9626 24.5033L84.7497 22.269C84.3568 21.8722 84.3568 21.2292 84.7497 20.8327L86.9626 18.5983C87.3555 18.2018 87.9922 18.2018 88.3851 18.5983L90.598 20.8327C90.9909 21.2294 90.9909 21.8725 90.598 22.269L88.3851 24.5033C88.1887 24.7016 87.9312 24.8007 87.6739 24.8007ZM86.8835 21.5507L87.6739 22.3488L88.4643 21.5507L87.6739 20.7526L86.8835 21.5507Z" fill="#01ECA5"/>
<path d="M47.8179 88.0076C47.2625 88.0076 46.8121 87.5528 46.8121 86.9919C46.8121 86.3198 46.2707 85.7732 45.605 85.7732C45.0496 85.7732 44.5992 85.3184 44.5992 84.7576C44.5992 84.1967 45.0496 83.7419 45.605 83.7419C46.2707 83.7419 46.8121 83.1953 46.8121 82.5232C46.8121 81.9624 47.2625 81.5076 47.8179 81.5076C48.3734 81.5076 48.8238 81.9624 48.8238 82.5232C48.8238 83.1953 49.3651 83.7419 50.0308 83.7419C50.5863 83.7419 51.0367 84.1967 51.0367 84.7576C51.0367 85.3184 50.5863 85.7732 50.0308 85.7732C49.3651 85.7732 48.8238 86.3198 48.8238 86.9919C48.8238 87.5528 48.3736 88.0076 47.8179 88.0076Z" fill="#FF7EB8"/>
<path d="M14.3749 14.4927C13.8195 14.4927 13.369 14.0379 13.369 13.4771C13.369 12.8049 12.8277 12.2583 12.162 12.2583C11.6066 12.2583 11.1561 11.8035 11.1561 11.2427C11.1561 10.6818 11.6066 10.2271 12.162 10.2271C12.8277 10.2271 13.369 9.68044 13.369 9.0083C13.369 8.44747 13.8195 7.99268 14.3749 7.99268C14.9303 7.99268 15.3807 8.44747 15.3807 9.0083C15.3807 9.68044 15.9221 10.2271 16.5878 10.2271C17.1432 10.2271 17.5936 10.6818 17.5936 11.2427C17.5936 11.8035 17.1432 12.2583 16.5878 12.2583C15.9221 12.2583 15.3807 12.8049 15.3807 13.4771C15.3807 14.0379 14.9303 14.4927 14.3749 14.4927Z" fill="#FF7EB8"/>
<path d="M81.3969 14.4927C80.8415 14.4927 80.3911 14.0379 80.3911 13.4771C80.3911 12.8049 79.8497 12.2583 79.184 12.2583C78.6286 12.2583 78.1782 11.8035 78.1782 11.2427C78.1782 10.6818 78.6286 10.2271 79.184 10.2271C79.8497 10.2271 80.3911 9.68044 80.3911 9.0083C80.3911 8.44747 80.8415 7.99268 81.3969 7.99268C81.9524 7.99268 82.4028 8.44747 82.4028 9.0083C82.4028 9.68044 82.9441 10.2271 83.6098 10.2271C84.1653 10.2271 84.6157 10.6818 84.6157 11.2427C84.6157 11.8035 84.1653 12.2583 83.6098 12.2583C82.9441 12.2583 82.4028 12.8049 82.4028 13.4771C82.4028 14.0379 81.9524 14.4927 81.3969 14.4927Z" fill="#6583FE"/>
<path d="M76.5586 61.2803C79.1384 57.7431 81.0526 53.7261 82.1514 49.4686H92.6499C94.3138 49.4686 95.6675 48.1018 95.6675 46.4217V35.0874C95.6675 33.4073 94.3138 32.0405 92.6499 32.0405H17.6373C19.4431 25.3944 23.3627 19.398 28.7436 15.0816C34.5181 10.4493 41.4774 8.00106 48.8693 8.00106C61.5208 8.00106 73.09 15.5132 78.3436 27.1393C78.5741 27.6495 79.171 27.8748 79.6763 27.6416C80.1817 27.4088 80.4046 26.8064 80.1738 26.2959C74.5943 13.9482 62.3066 5.9696 48.8695 5.9696C41.0185 5.9696 33.6265 8.57042 27.4926 13.4909C21.634 18.1904 17.4066 24.767 15.5568 32.0403H5.19507C3.53118 32.0403 2.17749 33.4071 2.17749 35.0872V46.4215C2.17749 48.1016 3.53118 49.4684 5.19507 49.4684H15.5866C17.4521 56.6948 21.6658 63.2257 27.4928 67.8994C33.6267 72.8197 41.0183 75.4203 48.8691 75.4203C56.3026 75.4203 63.3273 73.0854 69.2615 68.6582L92.0104 91.628C93.0171 92.6443 94.3394 93.1525 95.6615 93.1525C96.9838 93.1525 98.3061 92.6443 99.3125 91.628C101.326 89.5954 101.326 86.2877 99.3125 84.255L76.5586 61.2803ZM28.744 66.3091C23.3951 62.0185 19.4901 56.0673 17.6701 49.4686H20.9571C21.5125 49.4686 21.9629 49.0138 21.9629 48.453C21.9629 47.8922 21.5125 47.4374 20.9571 47.4374H5.19507C4.64044 47.4374 4.18921 46.9818 4.18921 46.4217V35.0874C4.18921 34.5274 4.64044 34.0717 5.19507 34.0717H92.6497C93.2043 34.0717 93.6556 34.5274 93.6556 35.0874V46.4217C93.6556 46.9818 93.2043 47.4374 92.6497 47.4374H27.7287C27.1733 47.4374 26.7229 47.8922 26.7229 48.453C26.7229 49.0138 27.1733 49.4686 27.7287 49.4686H80.0684C78.2424 56.0909 74.3125 62.063 68.936 66.3556C63.1726 70.957 56.2336 73.3892 48.8691 73.3892C41.4776 73.3892 34.5185 70.941 28.744 66.3091ZM97.89 90.1919C97.2948 90.793 96.5034 91.1241 95.6615 91.1241C94.8195 91.1241 94.0281 90.793 93.4329 90.1919L70.8564 67.3962C72.478 66.0322 73.9681 64.5222 75.3093 62.8915L97.89 85.6915C99.1188 86.9324 99.1188 88.9512 97.89 90.1919Z" fill="#2626BC"/>
<path d="M84.5103 43.287C85.1206 43.287 85.7071 43.1322 86.2277 42.8437L88.3068 44.943C88.5033 45.1413 88.7606 45.2404 89.0181 45.2404C89.2756 45.2404 89.5329 45.1413 89.7295 44.943C90.1224 44.5463 90.1224 43.9032 89.7295 43.5067L87.6504 41.4074C87.936 40.8818 88.0893 40.2897 88.0893 39.6734C88.0893 38.7081 87.717 37.8006 87.041 37.1181C86.3651 36.4356 85.4662 36.0596 84.5103 36.0596C83.5543 36.0596 82.6555 36.4356 81.9795 37.1181C80.5842 38.5269 80.5842 40.8196 81.9795 42.2285C82.6555 42.9112 83.5543 43.287 84.5103 43.287ZM83.402 38.5544C83.6979 38.2554 84.0916 38.0908 84.5103 38.0908C84.9289 38.0908 85.3224 38.2556 85.6183 38.5544C86.2293 39.1712 86.2293 40.1749 85.6187 40.792C85.6185 40.7922 85.6185 40.7922 85.6183 40.7922C85.6181 40.7924 85.6181 40.7924 85.6179 40.7926C85.322 41.0912 84.9285 41.2557 84.5101 41.2557C84.0914 41.2557 83.6977 41.0912 83.4018 40.7924C82.7911 40.1753 82.7911 39.1712 83.402 38.5544Z" fill="#2626BC"/>
</g>
<defs>
<linearGradient id="paint0_linear" x1="9.10908" y1="52" x2="93.8934" y2="52" gradientUnits="userSpaceOnUse">
<stop offset="0.0485" stop-color="#D2DEFF"/>
<stop offset="0.9993" stop-color="#DCFDEE"/>
</linearGradient>
<clipPath id="clip0">
<rect width="103" height="104" fill="white"/>
</clipPath>
</defs>
</svg>
